<svg xmlns="http://www.w3.org/2000/svg" viewBox="0 0 24 24" width="18" height="18" fill="none">
  <path d="M12 15.5a3.5 3.5 0 1 0 0-7 3.5 3.5 0 0 0 0 7z" stroke="#071422" stroke-width="1.2" stroke-linecap="round" stroke-linejoin="round"/>
  <path d="M19.4 15a1.8 1.8 0 0 0 .3 1.9l.1.1a1 1 0 0 1-1.4 1.4l-.1-.1a1.8 1.8 0 0 0-1.9-.3 1.8 1.8 0 0 0-1 1.6V20a1 1 0 0 1-2 0v-.4a1.8 1.8 0 0 0-1-1.6 1.8 1.8 0 0 0-1.9.3l-.1.1A1 1 0 0 1 6 18.1l.1-.1a1.8 1.8 0 0 0 .3-1.9 1.8 1.8 0 0 0-1.6-1H4a1 1 0 0 1 0-2h.4a1.8 1.8 0 0 0 1.6-1 1.8 1.8 0 0 0-.3-1.9L5.7 6.6A1 1 0 0 1 7 5.2l.1.1a1.8 1.8 0 0 0 1.9.3h.1A1.8 1.8 0 0 0 11 4.9V4a1 1 0 0 1 2 0v.9c.2.1.4.2.6.3.7.3 1.5.3 2.2 0 .2-.1.4-.2.6-.3V4a1 1 0 0 1 2 0v.9c.2.1.4.2.6.3.7.3 1.5.3 2.2 0 .2-.1.4-.2.6-.3V6a1 1 0 0 1 1 1v1.1a1.8 1.8 0 0 0 1 1.6c.7.3 1.5.3 2.2 0 .2-.1.4-.2.6-.3V10a1 1 0 0 1 1 1v1.1c0 .6-.2 1.1-.6 1.6z" stroke="#071422" stroke-width="0.8" stroke-linecap="round" stroke-linejoin="round"/>
</svg>